<svg height="512pt" viewBox="0 0 512 512" width="512pt" xmlns="http://www.w3.org/2000/svg"><path d="M502 452h-26V342.168c0-5.523-4.477-10-10-10s-10 4.477-10 10V452h-52V142.332h52v109.832c0 5.523 4.477 10 10 10s10-4.477 10-10V132.332c0-5.523-4.477-10-10-10h-72c-5.523 0-10 4.477-10 10V452h-24V207.668c0-5.523-4.477-10-10-10h-72c-5.523 0-10 4.477-10 10V452h-24.332V327c0-5.523-4.477-10-10-10h-72c-5.523 0-10 4.477-10 10v125H128v-62c0-5.523-4.477-10-10-10H46c-5.523 0-10 4.477-10 10v62H10c-5.523 0-10 4.477-10 10v40c0 5.523 4.477 10 10 10h492c5.523 0 10-4.477 10-10v-40c0-5.523-4.477-10-10-10zM288 217.668h52V452h-52zM171.668 337h52v115h-52zM56 400h52v52H56zm436 92H20v-20h472zM46 180.16h43.07c39.848 0 79.754-4.48 118.61-13.316C301.32 145.55 387.047 99.69 456.625 33.859v5.68c0 5.523 4.477 10 10 10s10-4.477 10-10V10c0-5.523-4.477-10-10-10h-29.54c-5.522 0-10 4.477-10 10s4.478 10 10 10h5.095c-66.856 63.012-149.114 106.918-238.934 127.344A515.782 515.782 0 0189.07 160.16H46c-5.523 0-10 4.477-10 10 0 5.524 4.477 10 10 10zm0 0"/><path d="M466 287.172a10.03 10.03 0 00-7.07 2.93 10.059 10.059 0 00-2.93 7.07 10.07 10.07 0 002.93 7.066c1.86 1.864 4.441 2.934 7.07 2.934s5.21-1.07 7.07-2.934a10.07 10.07 0 002.93-7.066c0-2.64-1.07-5.211-2.93-7.07a10.03 10.03 0 00-7.07-2.93zm0 0"/></svg>