<svg version="1.1" id="Capa_1" xmlns="http://www.w3.org/2000/svg" x="0" y="0" viewBox="0 0 512 512" xml:space="preserve"><path d="M437.02 75.112C388.667 26.76 324.38.133 256 .133c-41.218 0-82.189 10.033-118.485 29.016C116.586 40.094 97.191 54.029 80 70.302V.133H40v140h140v-40h-73.338c39.887-38.075 93.411-60 149.338-60 119.102 0 216 96.896 216 215.999a220.284 220.284 0 01-.901 19.87l39.836 3.628A260.53 260.53 0 00512 256.135l-20-.002h20c0-68.381-26.629-132.667-74.98-181.021zM512 256.132v.001zM87.724 391.566l-31.145 25.101a258.108 258.108 0 0029.92 31.315l26.494-29.967a217.903 217.903 0 01-25.269-26.449zm-35.505-63.623l-37.727 13.296a255.633 255.633 0 0017.842 39.517l34.926-19.497a215.468 215.468 0 01-15.041-33.316zM40 256.133H0c0 14.47 1.22 28.986 3.624 43.145l39.436-6.698A218.198 218.198 0 0140 256.133zm102.33 183.708l-21.082 33.993a255.911 255.911 0 0038.618 19.629l15.029-37.069a215.7 215.7 0 01-32.565-16.553zm322.387-127.86a215.221 215.221 0 01-12.395 34.365l36.335 16.727a255.154 255.154 0 0014.706-40.777l-38.646-10.315zm-81.163 118.487a216.608 216.608 0 01-31.213 19.047l17.867 35.788a256.703 256.703 0 0036.994-22.574l-23.648-32.261zm50.728-52.345a217.965 217.965 0 01-23.152 28.311l28.725 27.837a257.892 257.892 0 0027.415-33.527l-32.988-22.621zM318.37 462.995a215.371 215.371 0 01-35.756 7.515l4.873 39.702a255.636 255.636 0 0042.412-8.914l-11.529-38.303zm-108.576 4.19l-8.514 39.083a256.918 256.918 0 0042.953 5.6l1.809-39.959a216.978 216.978 0 01-36.248-4.724z"/></svg>