<svg id="smaller" height="512" viewBox="0 0 300 300" width="512" xmlns="http://www.w3.org/2000/svg"><path d="M254.828 200l2.828-2.828a4 4 0 10-5.656-5.656l-2.828 2.828-2.828-2.828a4 4 0 10-5.656 5.656l2.828 2.828-2.828 2.828a4 4 0 105.656 5.656l2.828-2.828 2.828 2.828c.781.781 1.805 1.172 2.828 1.172s2.047-.391 2.828-1.172a4 4 0 000-5.656z"/><circle cx="185.172" cy="252" r="4"/><path d="M220.09 44h-26.918c-2.211 0-4 1.789-4 4s1.789 4 4 4h26.918a5.09 5.09 0 015.082 5.082v165.836A5.09 5.09 0 01220.09 228H54.254a5.09 5.09 0 01-5.082-5.082V57.082A5.09 5.09 0 0154.254 52h118.383c2.211 0 4-1.789 4-4s-1.789-4-4-4H54.254c-7.215 0-13.082 5.867-13.082 13.082v165.836c0 7.215 5.867 13.082 13.082 13.082H220.09c7.215 0 13.082-5.867 13.082-13.082V57.082c0-7.215-5.867-13.082-13.082-13.082z"/><path d="M121.172 92c0-2.211-1.789-4-4-4s-4 1.789-4 4v18.344L68 65.172a4 4 0 10-5.656 5.656L107.516 116H89.172c-2.211 0-4 1.789-4 4s1.789 4 4 4h28c2.211 0 4-1.789 4-4zm68 68c0-2.211-1.789-4-4-4h-28c-2.211 0-4 1.789-4 4v28c0 2.211 1.789 4 4 4s4-1.789 4-4v-18.344l45.172 45.172c.781.781 1.805 1.172 2.828 1.172s2.047-.391 2.828-1.172a4 4 0 000-5.656L166.828 164h18.344c2.211 0 4-1.789 4-4zM212 65.172a4 4 0 00-5.656 0l-45.172 45.172V92c0-2.211-1.789-4-4-4s-4 1.789-4 4v28c0 2.211 1.789 4 4 4h28c2.211 0 4-1.789 4-4s-1.789-4-4-4h-18.344L212 70.828a4 4 0 000-5.656zM117.172 192c2.211 0 4-1.789 4-4v-28c0-2.211-1.789-4-4-4h-28c-2.211 0-4 1.789-4 4s1.789 4 4 4h18.344l-45.172 45.172A4 4 0 1068 214.828l45.172-45.172V188c0 2.211 1.789 4 4 4z"/></svg>