<svg id="Layer_1" height="512" width="512" xmlns="http://www.w3.org/2000/svg"><circle cx="134.74" cy="326.01" r="10"/><circle cx="116" cy="256" r="10"/><circle cx="134.74" cy="185.99" r="10"/><circle cx="185.99" cy="134.74" r="10"/><circle cx="256" cy="116" r="10"/><circle cx="326.01" cy="134.74" r="10"/><circle cx="377.26" cy="185.99" r="10"/><circle cx="396" cy="256" r="10"/><circle cx="377.26" cy="326.01" r="10"/><path d="M507.31 207.12a256.184 256.184 0 00-14.06-47.45 255 255 0 00-23.43-44.54c-9.49-14.37-20.52-27.87-32.8-40.15-12.27-12.27-25.78-23.31-40.14-32.79-14-9.24-28.98-17.13-44.53-23.43a255.252 255.252 0 00-47.43-14.07A257.65 257.65 0 00256.05 0h-.1c-16.37 0-32.81 1.58-48.87 4.69a256.014 256.014 0 00-47.43 14.07 254.556 254.556 0 00-44.53 23.43 258.326 258.326 0 00-40.14 32.79c-12.28 12.28-23.31 25.78-32.8 40.15a255 255 0 00-23.43 44.54 256.213 256.213 0 00-14.07 47.45C1.57 223.18 0 239.63 0 256s1.57 32.82 4.68 48.88c3.14 16.22 7.88 32.18 14.07 47.45a255 255 0 0023.43 44.54 258.361 258.361 0 0032.8 40.15c12.27 12.27 25.78 23.31 40.14 32.79 14 9.24 28.98 17.13 44.53 23.43 15.26 6.2 31.22 10.93 47.43 14.07 16.06 3.11 32.51 4.69 48.88 4.69h.09c16.37 0 32.81-1.58 48.87-4.69 16.21-3.14 32.17-7.88 47.43-14.07 15.55-6.3 30.53-14.19 44.53-23.43 14.36-9.48 27.87-20.52 40.14-32.79 17.15-17.15 31.73-36.53 43.33-57.59 2.66-4.83.89-10.93-3.93-13.58a9.98 9.98 0 00-4.82-1.25c-3.64 0-7 1.98-8.76 5.17l-.01.01c-10.69 19.41-24.13 37.27-39.95 53.1C378.31 467.44 319.04 491.99 256 492c-63.04-.01-122.31-24.56-166.88-69.12C44.56 378.31 20.01 319.04 20 256c.01-63.04 24.56-122.31 69.12-166.88C133.69 44.56 192.96 20.01 256 20c63.04.01 122.31 24.56 166.88 69.12C467.44 133.69 491.99 192.95 492 256c0 10.77-.74 21.63-2.21 32.29-.75 5.46 3.09 10.52 8.55 11.27.45.06.92.1 1.37.1 4.97-.01 9.22-3.72 9.9-8.65 1.58-11.55 2.39-23.33 2.39-35.01 0-16.37-1.57-32.82-4.69-48.88z"/><circle cx="489.548" cy="333.43" r="10"/><path d="M404.548 411.435c20.767-19.855 37.104-43.214 48.558-69.429 11.86-27.145 17.88-56.046 17.895-85.903.027-57.612-22.226-111.65-62.659-152.16C367.907 63.433 313.911 41.079 256.3 41h-.302c-57.375 0-111.32 22.32-151.922 62.867C63.401 144.487 41 198.515 41 256c0 29.891 6.02 58.825 17.892 85.999 11.465 26.243 27.822 49.623 48.618 69.491 5.739 5.483 13.236 8.295 20.759 8.294 5.895 0 11.806-1.728 16.894-5.249C177.808 391.942 216.135 380 256 380s78.192 11.942 110.838 34.535c11.585 8.019 27.445 6.714 37.71-3.1zM133.78 398.09c-3.811 2.638-9.049 2.192-12.455-1.061C82.424 359.862 61 309.777 61 256c0-52.137 20.317-101.14 57.208-137.981C155.036 81.241 203.957 61 255.999 61h.274C363.696 61.147 451.05 148.666 451 256.093c-.025 53.714-21.431 103.749-60.273 140.886-3.434 3.284-8.694 3.75-12.507 1.111C342.213 373.171 299.951 360 256 360s-86.213 13.171-122.22 38.09z"/><path d="M118.152 282.581l-24.15 6.47c-5.334 1.429-8.5 6.912-7.071 12.247 1.197 4.468 5.237 7.415 9.653 7.415.856 0 26.745-6.813 26.745-6.813 5.334-1.429 8.5-6.912 7.071-12.247-1.429-5.336-6.914-8.504-12.248-7.072zm263.449-60.233c1.197 4.468 5.237 7.415 9.653 7.415.856 0 26.745-6.813 26.745-6.813 5.334-1.429 8.5-6.912 7.071-12.247s-6.912-8.503-12.247-7.071l-24.15 6.47c-5.336 1.427-8.502 6.911-7.072 12.246zM229.419 118.152l-6.47-24.15c-1.429-5.334-6.913-8.502-12.247-7.071-5.334 1.429-8.5 6.912-7.071 12.247l6.47 24.15c1.197 4.468 5.237 7.415 9.653 7.415.856 0 1.728-.111 2.594-.343 5.334-1.429 8.5-6.913 7.071-12.248zm60.233 12.247c.867.232 1.738.343 2.594.343 4.416 0 8.456-2.947 9.653-7.415l6.47-24.15c1.429-5.335-1.737-10.818-7.071-12.247a9.996 9.996 0 00-12.247 7.071l-6.47 24.15c-1.429 5.336 1.737 10.82 7.071 12.248zm128.346 158.652l-24.15-6.47c-5.339-1.432-10.818 1.737-12.247 7.071-1.429 5.335 1.737 10.818 7.071 12.247 0 0 25.888 6.813 26.745 6.813 4.416 0 8.456-2.947 9.653-7.415 1.429-5.334-1.737-10.818-7.072-12.246zm-294.67-78.95l-24.15-6.47c-5.34-1.432-10.818 1.737-12.247 7.071-1.429 5.335 1.737 10.818 7.071 12.247l24.15 6.47c.867.232 1.738.343 2.594.343 4.416 0 8.456-2.947 9.653-7.415 1.43-5.334-1.736-10.818-7.071-12.246zm23.073-77.842c-3.905-3.905-10.237-3.905-14.143 0-3.905 3.905-3.905 10.237 0 14.143l17.67 17.67c1.953 1.953 4.512 2.929 7.071 2.929s5.119-.976 7.071-2.929c3.905-3.905 3.905-10.237 0-14.143zm233.34 0c-3.905-3.905-10.237-3.905-14.143 0l-96.673 96.673c-11.149-5.31-24.921-3.363-34.139 5.855-11.697 11.697-11.697 30.729 0 42.427 5.849 5.848 13.531 8.772 21.213 8.772s15.365-2.924 21.213-8.772c9.218-9.218 11.166-22.99 5.855-34.139l96.673-96.673c3.906-3.906 3.906-10.238.001-14.143zM256 266c-5.523 0-10-4.477-10-10s4.477-10 10-10 10 4.477 10 10-4.477 10-10 10zm-40 155c-5.523 0-10 4.477-10 10s4.477 10 10 10h80c5.523 0 10-4.477 10-10s-4.477-10-10-10z"/></svg>